<?xml version="1.0" encoding="utf-8"?>
<!-- Generator: Adobe Illustrator 19.0.0, SVG Export Plug-In . SVG Version: 6.00 Build 0)  -->
<svg version="1.1" id="Layer_1" xmlns="http://www.w3.org/2000/svg" xmlns:xlink="http://www.w3.org/1999/xlink" x="0px" y="0px"
	 viewBox="0 0 48 48" style="enable-background:new 0 0 48 48;" xml:space="preserve">
<style type="text/css">
	.st0{fill:#FFFFFF;}
	.st1{fill:#E28A17;}
</style>
<g id="XMLID_14_">
	<g id="XMLID_1_">
		<path id="XMLID_124_" class="st0" d="M37.3,6.7l7.3,13.6c1.2,2.3,1.2,5.1,0,7.4l-7.3,13.6c-1.2,2.3-3.5,3.7-6,3.7H16.7
			c-2.5,0-4.8-1.4-6-3.7L3.4,27.7c-1.2-2.3-1.2-5.1,0-7.4l7.3-13.6c1.2-2.3,3.5-3.7,6-3.7h14.6C33.8,3,36.1,4.4,37.3,6.7z"/>
		<g id="XMLID_119_">
			<path id="XMLID_123_" class="st1" d="M36,7.5c3,5.6,10,14,6.8,20.4c-1.9,3.7-3.8,7.5-6,11.1c-1.3,2.2-2.4,4-5.4,4.4
				c-1.3,0.2-2.7,0-4,0c-3.4,0-7.3,0.5-10.7,0c-4.7-0.7-6.5-6.5-8.5-10.1c-2.1-4-5.1-7.7-3.3-12.4c1.4-3.6,3.8-7.1,5.7-10.5
				c0.9-1.6,1.8-3.9,3.5-4.9c1.7-1.1,4.2-0.8,6.2-0.8C24.9,4.6,33,3,36,7.5c1.1,1.7,3.9,0.1,2.8-1.6c-3.3-5-8-4.5-13.2-4.5
				c-4.5,0-10.7-1.1-14.4,2.2c-3.3,3-5.2,8.5-7.2,12.4c-2.3,4.3-4.1,8-1.8,12.8c2.1,4.3,4.5,8.7,7,12.9c2.7,4.5,6.4,4.9,11.1,4.9
				c4.3,0,10.2,1.1,14.3-0.7c4.3-1.8,6.3-7.6,8.3-11.5c2.7-5,5.9-9.5,3.1-15.2c-2.2-4.5-4.8-8.9-7.2-13.3C37.8,4.1,35,5.7,36,7.5z"
				/>
		</g>
	</g>
	<g id="XMLID_3_">
		<line id="XMLID_117_" class="st0" x1="33.8" y1="35.1" x2="14.3" y2="35.1"/>
		<g id="XMLID_67_">
			<path id="XMLID_116_" class="st1" d="M33.8,33.5c-6.5,0-13,0-19.5,0c-2.1,0-2.1,3.2,0,3.2c6.5,0,13,0,19.5,0
				C35.9,36.7,35.9,33.5,33.8,33.5L33.8,33.5z"/>
		</g>
	</g>
	<g id="XMLID_13_">
		<line id="XMLID_65_" class="st0" x1="33.8" y1="18.4" x2="14.3" y2="18.4"/>
		<g id="XMLID_59_">
			<path id="XMLID_64_" class="st1" d="M33.8,16.8c-6.5,0-13,0-19.5,0c-2.1,0-2.1,3.2,0,3.2c6.5,0,13,0,19.5,0
				C35.9,20,35.9,16.8,33.8,16.8L33.8,16.8z"/>
		</g>
	</g>
	<g id="XMLID_5_">
		<line id="XMLID_57_" class="st0" x1="33.8" y1="29.5" x2="14.3" y2="29.5"/>
		<g id="XMLID_51_">
			<path id="XMLID_55_" class="st1" d="M33.8,27.9c-6.5,0-13,0-19.5,0c-2.1,0-2.1,3.2,0,3.2c6.5,0,13,0,19.5,0
				C35.9,31.1,35.9,27.9,33.8,27.9L33.8,27.9z"/>
		</g>
	</g>
	<g id="XMLID_25_">
		<line id="XMLID_48_" class="st0" x1="33.8" y1="12.9" x2="14.3" y2="12.9"/>
		<g id="XMLID_43_">
			<path id="XMLID_47_" class="st1" d="M33.8,11.3c-6.5,0-13,0-19.5,0c-2.1,0-2.1,3.2,0,3.2c6.5,0,13,0,19.5,0
				C35.9,14.6,35.9,11.3,33.8,11.3L33.8,11.3z"/>
		</g>
	</g>
	<g id="XMLID_6_">
		<line id="XMLID_40_" class="st0" x1="37.4" y1="24" x2="10.7" y2="24"/>
		<g id="XMLID_35_">
			<path id="XMLID_39_" class="st1" d="M37.4,22.4c-8.9,0-17.8,0-26.7,0c-2.1,0-2.1,3.2,0,3.2c8.9,0,17.8,0,26.7,0
				C39.4,25.6,39.4,22.4,37.4,22.4L37.4,22.4z"/>
		</g>
	</g>
</g>
</svg>
