<?xml version="1.0" encoding="utf-8"?>
<!-- Generator: Adobe Illustrator 19.0.0, SVG Export Plug-In . SVG Version: 6.00 Build 0)  -->
<svg version="1.1" id="Layer_1" xmlns="http://www.w3.org/2000/svg" xmlns:xlink="http://www.w3.org/1999/xlink" x="0px" y="0px"
	 viewBox="0 0 512 512" style="enable-background:new 0 0 512 512;" xml:space="preserve">
<style type="text/css">
	.st0{fill:#FFFFFF;}
	.st1{fill:#E28A17;}
</style>
<g id="XMLID_14_">
	<g id="XMLID_1_">
		<path id="XMLID_69_" class="st0" d="M399.2,85.6l79.1,138.1c13.3,23.3,13.3,51.9,0,75.2l-79.1,138.1
			c-13.4,23.3-38.1,37.7-64.8,37.7H176.5c-26.8,0-51.5-14.4-64.8-37.7L32.6,298.9c-13.3-23.3-13.3-51.9,0-75.2l79.1-138.1
			c13.4-23.3,38.1-37.7,64.8-37.7h157.9C361.2,47.9,385.9,62.3,399.2,85.6z"/>
		<g id="XMLID_64_">
			<path id="XMLID_68_" class="st1" d="M384.6,94.1c20.8,36.3,41.5,72.5,62.3,108.8c4.5,7.9,9.1,15.8,13.6,23.7c5,8.7,7.6,13,9.8,23
				c0.2,1.1,0.4,2.1,0.6,3.2c1,5,0-3.1,0.2,1.9c0.1,2.7,0.3,5.4,0.3,8.1c0,1.4-0.1,2.7-0.2,4.1c-0.1,0.8-0.5,4.3,0,1.1
				c-0.5,3.2-1.2,6.4-2.1,9.6c-0.8,2.6-1.6,5.3-2.7,7.8c1.1-2.5-0.1,0.1-0.3,0.5c-0.8,1.5-1.5,3-2.3,4.4c-0.2,0.3-0.3,0.6-0.5,0.9
				c-3.1,5.5-6.3,11-9.5,16.5c-22.6,39.4-45.1,78.8-67.7,118.2c-1,1.7-1.9,3.4-3,5c-0.8,1.3-1.6,2.5-2.5,3.7c-1.8,2.6-0.4,0.6,0,0.1
				c-1.7,2.1-3.5,4.1-5.4,6c-1.7,1.7-3.6,3.2-5.4,4.9c-2,1.9,3.2-2.1-0.6,0.4c-1.2,0.8-2.4,1.6-3.6,2.4c-2,1.3-4.1,2.5-6.3,3.6
				c-1.3,0.6-2.6,1.3-3.9,1.8c3.1-1.3,0.7-0.3,0-0.1c-2.5,0.8-5,1.7-7.6,2.3c-1.2,0.3-2.4,0.6-3.5,0.8c-1.4,0.3-4.3,0.7-1.3,0.3
				c-3.5,0.4-7.1,0.5-10.6,0.5c-19.3,0-38.6,0-57.8,0c-25.8,0-51.6,0-77.4,0c-6.6,0-13.1,0-19.7,0c-0.4,0-0.8,0-1.1,0
				c-1.5,0-3,0-4.5-0.1c-1.2-0.1-2.4-0.2-3.7-0.3c-1.3-0.1-1-0.1,0.9,0.1c-1-0.2-1.9-0.3-2.9-0.5c-2.4-0.5-4.7-1.1-7-1.8
				c-0.9-0.3-1.8-0.6-2.7-0.9c-0.5-0.2-5-2-1.3-0.4c-4.9-2.1-9.4-4.8-13.7-7.8c-2.6-1.8-0.5-0.4,0,0c-1.1-0.9-2.2-1.9-3.3-2.8
				c-1.8-1.6-3.5-3.3-5.1-5.1c-0.7-0.7-1.3-1.5-1.9-2.2c-3.1-3.5,1.7,2.7-0.9-1.2c-1.4-2.1-2.7-4.1-4-6.3c-0.6-1.1-1.3-2.2-1.9-3.3
				c-4-7-8.1-14.1-12.1-21.1c-13.1-22.8-26.1-45.6-39.2-68.5c-8.5-14.9-17.2-29.8-25.6-44.8c-3.5-6.2-5-9.4-6.8-17.9
				c-0.3-1.6-0.7-3.2-0.9-4.8c0.4,3,0.1,0.2,0-0.3c-0.1-2.7-0.3-5.4-0.3-8.1c0-1.6,0.2-3.2,0.3-4.9c0.2-3.4,0.1-1.1,0-0.3
				c0.5-3.2,1.2-6.4,2.1-9.6c0.7-2.6,1.6-5.3,2.7-7.8c-1.3,3.1,1-1.9,1.1-2c0.5-1,1.1-2,1.6-2.9c0.2-0.3,0.3-0.6,0.5-0.9
				c1.1-2,2.3-3.9,3.4-5.9c23.2-40.5,46.4-81,69.6-121.5c2.6-4.6,5.1-9.2,8-13.6c0.5-0.8,1.1-1.6,1.7-2.4c2.6-4-2.2,2.3,0.9-1.2
				c1.6-1.8,3.2-3.6,4.9-5.4c1.7-1.7,3.6-3.2,5.4-4.8c-2.4,2-0.6,0.4,0,0c1.6-1.1,3.2-2.2,4.8-3.2c2.1-1.2,4.2-2.4,6.3-3.4
				c0.9-0.4,1.7-0.8,2.6-1.2c-3.6,1.6,0.8-0.2,1.3-0.4c2.3-0.8,4.6-1.5,6.9-2c0.9-0.2,1.9-0.4,2.8-0.6c1-0.2,1.9-0.4,2.9-0.5
				c-2.1,0.3-2.1,0.3-0.2,0c15.9-1.1,32-0.4,47.9-0.4c26.7,0,53.3,0,80,0c9.7,0,19.4,0,29.1,0c2.4,0,4.8,0,7.2,0c0.4,0,0.8,0,1.1,0
				c1.5,0,3,0,4.5,0.1c1.5,0.1,2.9,0.2,4.4,0.4c-4-0.5,0.7,0.2,1.3,0.3c2.4,0.5,4.7,1.1,7,1.8c1.4,0.4,2.7,0.9,4.1,1.4
				c3,1,0.6,0.2,0-0.1c4.4,1.9,8.6,4.3,12.6,7c0.4,0.3,4.1,3.3,1.2,0.8c0.7,0.6,1.5,1.2,2.2,1.9c2,1.8,3.9,3.6,5.7,5.6
				c0.8,0.9,1.6,1.8,2.4,2.7c3.1,3.4-1-1.7,0.5,0.6C381.7,89.6,383.2,91.8,384.6,94.1c4.5,7.7,15.5,11,23.2,6.1
				c7.7-5,10.9-15,6.1-23.2c-12.2-20.8-32.1-36.5-55.4-42.9c-10-2.7-20.1-3.2-30.3-3.2c-23.1,0-46.1,0-69.2,0c-24.2,0-48.4,0-72.6,0
				c-6.7,0-13.4-0.1-20.1,0.7c-23.7,3-45.8,14.5-60.8,33.3c-11.2,14.1-19.3,31-28.2,46.6c-13.7,23.9-27.4,47.8-41,71.7
				c-9.5,16.7-21.7,34-27,52.7c-6.9,24-3.4,50,8.8,71.6c2.5,4.5,5.1,8.9,7.6,13.3c23.2,40.6,46.5,81.1,69.7,121.7
				c17.1,29.8,46.8,48.9,81.7,49.1c18.1,0.1,36.2,0,54.4,0c26.7,0,53.4,0,80.1,0c7.1,0,14.3,0,21.4,0c16.7,0,33.1-4,47.6-12.4
				c14.4-8.4,26-20.7,34.3-35c3.5-6.1,7-12.3,10.6-18.4c13.2-23.1,26.5-46.2,39.7-69.3c9.2-16.1,18.5-32.2,27.7-48.3
				c10.9-19.2,14.7-40.9,11.2-62.6c-2-12.4-7.1-23.7-13.3-34.5c-23.4-40.9-46.8-81.7-70.2-122.6c-2.2-3.8-4.3-7.5-6.5-11.3
				c-4.4-7.7-15.5-11-23.2-6.1C382.9,76,379.9,85.9,384.6,94.1z"/>
		</g>
	</g>
	<g id="XMLID_3_">
		<line id="XMLID_62_" class="st0" x1="360.8" y1="373.8" x2="150.1" y2="373.8"/>
		<g id="XMLID_57_">
			<path id="XMLID_61_" class="st1" d="M360.8,356.8c-23.8,0-47.6,0-71.4,0c-37.7,0-75.5,0-113.2,0c-8.7,0-17.4,0-26.1,0
				c-8.9,0-17.4,7.8-16.9,16.9c0.4,9.2,7.4,16.9,16.9,16.9c23.8,0,47.6,0,71.4,0c37.7,0,75.5,0,113.2,0c8.7,0,17.4,0,26.1,0
				c8.9,0,17.4-7.8,16.9-16.9C377.3,364.6,370.3,356.8,360.8,356.8L360.8,356.8z"/>
		</g>
	</g>
	<g id="XMLID_13_">
		<line id="XMLID_55_" class="st0" x1="360.8" y1="204.4" x2="150.1" y2="204.4"/>
		<g id="XMLID_50_">
			<path id="XMLID_54_" class="st1" d="M360.8,187.5c-23.8,0-47.6,0-71.4,0c-37.7,0-75.5,0-113.2,0c-8.7,0-17.4,0-26.1,0
				c-8.9,0-17.4,7.8-16.9,16.9c0.4,9.2,7.4,16.9,16.9,16.9c23.8,0,47.6,0,71.4,0c37.7,0,75.5,0,113.2,0c8.7,0,17.4,0,26.1,0
				c8.9,0,17.4-7.8,16.9-16.9C377.3,195.3,370.3,187.5,360.8,187.5L360.8,187.5z"/>
		</g>
	</g>
	<g id="XMLID_5_">
		<line id="XMLID_48_" class="st0" x1="360.8" y1="317" x2="150.1" y2="317"/>
		<g id="XMLID_43_">
			<path id="XMLID_47_" class="st1" d="M360.8,300c-23.8,0-47.6,0-71.4,0c-37.7,0-75.5,0-113.2,0c-8.7,0-17.4,0-26.1,0
				c-8.9,0-17.4,7.8-16.9,16.9c0.4,9.2,7.4,16.9,16.9,16.9c23.8,0,47.6,0,71.4,0c37.7,0,75.5,0,113.2,0c8.7,0,17.4,0,26.1,0
				c8.9,0,17.4-7.8,16.9-16.9C377.3,307.8,370.3,300,360.8,300L360.8,300z"/>
		</g>
	</g>
	<g id="XMLID_25_">
		<line id="XMLID_41_" class="st0" x1="360.8" y1="148.7" x2="150.1" y2="148.7"/>
		<g id="XMLID_36_">
			<path id="XMLID_40_" class="st1" d="M360.8,131.8c-23.8,0-47.6,0-71.4,0c-37.7,0-75.5,0-113.2,0c-8.7,0-17.4,0-26.1,0
				c-8.9,0-17.4,7.8-16.9,16.9c0.4,9.2,7.4,16.9,16.9,16.9c23.8,0,47.6,0,71.4,0c37.7,0,75.5,0,113.2,0c8.7,0,17.4,0,26.1,0
				c8.9,0,17.4-7.8,16.9-16.9C377.3,139.6,370.3,131.8,360.8,131.8L360.8,131.8z"/>
		</g>
	</g>
	<g id="XMLID_6_">
		<line id="XMLID_34_" class="st0" x1="399.3" y1="261.3" x2="111.2" y2="261"/>
		<g id="XMLID_24_">
			<path id="XMLID_33_" class="st1" d="M399.3,244.3c-32.5,0-64.9-0.1-97.4-0.1c-51.7-0.1-103.4-0.1-155.2-0.2
				c-11.8,0-23.7,0-35.5,0c-8.9,0-17.4,7.8-16.9,16.9c0.4,9.2,7.4,16.9,16.9,16.9c32.5,0,64.9,0.1,97.4,0.1
				c51.7,0.1,103.4,0.1,155.2,0.2c11.8,0,23.7,0,35.5,0c8.9,0,17.4-7.8,16.9-16.9C415.9,252.1,408.8,244.3,399.3,244.3L399.3,244.3z
				"/>
		</g>
	</g>
</g>
</svg>
