<?xml version="1.0" encoding="utf-8"?>
<!-- Generator: Adobe Illustrator 19.0.0, SVG Export Plug-In . SVG Version: 6.00 Build 0)  -->
<svg version="1.1" id="Capa_1" xmlns="http://www.w3.org/2000/svg" xmlns:xlink="http://www.w3.org/1999/xlink" x="0px" y="0px"
	 viewBox="-223 25 512 512" style="enable-background:new -223 25 512 512;" xml:space="preserve">
<style type="text/css">
	.st0{fill:#FF6F1F;}
	.st1{filter:url(#Adobe_OpacityMaskFilter);}
	.st2{opacity:0.75;mask:url(#SVGID_1_);}
	.st3{fill:#FFFFFF;}
	.st4{fill:#09618E;}
</style>
<g>
	<g>
		
			<image style="overflow:visible;opacity:0.75;" width="424" height="429" xlink:href="E3ED43B9.png"  transform="matrix(1 0 0 1 -176 68)">
		</image>
		<g>
			<g>
				<path class="st0" d="M-24.9,433.2H90.9c12.1,0,21.9,9.8,21.9,21.9l0,0c0,12.1-9.8,21.9-21.9,21.9H-24.9
					c-12.1,0-21.9-9.8-21.9-21.9l0,0C-46.8,443-37,433.2-24.9,433.2z"/>
				<path class="st0" d="M162.9,409.4c0,9.8-4,18.7-10.4,25.2C146,441,137.1,445,127.3,445H-61.3c-19.7,0-35.6-15.9-35.6-35.6
					c0-1,0-1.9,0.1-2.8c0.7-8.7,4.5-16.5,10.3-22.3c6.4-6.4,15.3-10.4,25.2-10.4h188.5c18.7,0,34.1,14.4,35.5,32.8
					C162.8,407.5,162.9,408.4,162.9,409.4z"/>
				<path class="st0" d="M162.7,406.6c-3.8,0.7-7.6,1-11.6,1H-85.2c-3.9,0-7.8-0.4-11.6-1.1c0.7-8.7,4.5-16.5,10.3-22.3
					c6.4-6.4,15.3-10.4,25.2-10.4h188.5C146,373.8,161.3,388.2,162.7,406.6z"/>
				<path class="st0" d="M162.9,113.9c0,1,0,1.9-0.1,2.8c-0.7,8.7-4.5,16.5-10.3,22.3c-6.4,6.4-15.3,10.4-25.2,10.4H-61.3
					c-18.7,0-34.1-14.4-35.5-32.8c-0.1-0.9-0.1-1.9-0.1-2.8c0-9.8,4-18.7,10.4-25.2c6.4-6.4,15.3-10.4,25.2-10.4h188.5
					C146.9,78.3,162.9,94.3,162.9,113.9z"/>
				<path class="st0" d="M162.7,116.8c-0.7,8.7-4.5,16.5-10.3,22.3c-6.4,6.4-15.3,10.4-25.2,10.4H-61.3c-18.7,0-34.1-14.4-35.5-32.8
					c3.8-0.7,7.6-1,11.6-1h236.3C155.1,115.7,159,116.1,162.7,116.8z"/>
				<path class="st0" d="M195.8,344.1c0,12.3-5,23.5-13.1,31.6c-8.1,8.1-19.2,13.1-31.6,13.1H-85.2c-24.7,0-44.6-20-44.6-44.6
					c0-5.1,0.8-9.9,2.4-14.4c2.2-6.5,5.9-12.4,10.7-17.1c8.1-8.1,19.2-13.1,31.6-13.1h236.3c19.6,0,36.3,12.6,42.2,30.2
					C195,334.2,195.8,339.1,195.8,344.1z"/>
				<path class="st0" d="M193.4,329.7c-5.7,1.4-11.7,2.2-17.8,2.2h-285.2c-6.1,0-12.1-0.8-17.8-2.2c2.2-6.5,5.9-12.4,10.7-17.1
					c8.1-8.1,19.2-13.1,31.6-13.1h236.3C170.8,299.5,187.4,312.1,193.4,329.7z"/>
				<path class="st0" d="M195.8,179.2c0,3.4-0.4,6.6-1.1,9.8c-1.9,8.4-6.1,15.9-12,21.8c-8.1,8.1-19.2,13.1-31.6,13.1H-85.2
					c-21.3,0-39.1-14.9-43.6-34.8c-0.7-3.2-1.1-6.4-1.1-9.8c0-12.3,5-23.5,13.1-31.6c8.1-8.1,19.2-13.1,31.6-13.1h236.3
					C175.8,134.6,195.8,154.6,195.8,179.2z"/>
				<path class="st0" d="M-128.7,189c6.1-1.7,12.5-2.6,19.1-2.6h285.2c6.6,0,13,0.9,19.1,2.6c-1.9,8.4-6.1,15.9-12,21.8
					c-8.1,8.1-19.2,13.1-31.6,13.1H-85.2C-106.4,223.8-124.3,208.9-128.7,189z"/>
				<path class="st0" d="M175.6,313h-285.2c-29.7,0-53.9-24.1-53.9-53.9l0,0c0-29.7,24.1-53.9,53.9-53.9h285.2
					c29.7,0,53.9,24.1,53.9,53.9l0,0C229.5,288.9,205.3,313,175.6,313z"/>
			</g>
		</g>
	</g>
	<defs>
		<filter id="Adobe_OpacityMaskFilter" filterUnits="userSpaceOnUse" x="-174.6" y="70" width="420.6" height="425">
			
				<feColorMatrix  type="matrix" values="-1 0 0 0 1  0 -1 0 0 1  0 0 -1 0 1  0 0 0 1 0" color-interpolation-filters="sRGB" result="source"/>
		</filter>
	</defs>
	<mask maskUnits="userSpaceOnUse" x="-174.6" y="70" width="420.6" height="425" id="SVGID_1_">
		<g class="st1">
			<image style="overflow:visible;" width="425" height="429" xlink:href="E3ED43BF.jpg"  transform="matrix(1 0 0 1 -177 68)">
			</image>
		</g>
	</mask>
	<g class="st2">
		<path class="st3" d="M231,221.5c-2.9-3.6-6.1-7-10-10c-2.7-2.1-8-4.4-10-7c-1-1.3-1-1.4-1-3c0-1.6,0.8-1.8,1-3
			c0.1-0.5-0.2-1.5,0-2c0.1-0.4,1-2.9,1-3c0.5-3.2,0-6.8,0-10c0-16.1-5.6-30.8-17-42c-2.9-2.9-7.4-5.4-11-7.5
			c-1.3-0.7-4.3-2.2-5-3.5c-0.5-1.1,0-3.9,0-5c0-7.5,0.2-14.5-2-21c-1.3-3.9-2.2-7.4-4-11c-1.7-3.4-5-7.2-8-10
			c-6.4-5.8-13.3-8.7-21-12.5h-5c0-0.3,0-0.7,0-1H-67c0,0.3,0,0.7,0,1h-5c-8.6,4.3-17.9,7.6-24,15.5c-5.4,7-9.3,14.8-10.5,23.5
			c-0.5,3.6-0.5,7.6-0.5,11.5c0,2,0,4,0,6c0,3.2-0.3,3.2-3,5c-8.3,5.6-15.6,10.9-21,19c-7.3,11-11.3,27.2-9,42c0.9,0.4,1.2,1.1,1,2
			c0,0.7,0,1.3,0,2c0.1,0.8,0.9,1.4,1,2c0.3,2,0.1,3.5-1,5c-1,1.3-3.6,2.1-5,3c-1.8,1.2-3.3,2.7-5,4c-7.8,5.8-12.1,12.7-17,20
			c-2.1,3.2-3.8,7.4-5,11c-1.1,3.2-0.9,6.8-2,10c-1.8,5.3-2,15-1,21c0.3,1.6,1.7,4.4,2,6c0.3,2.1,0.4,3.1,1,5c1.2,3.5,2.5,6.7,4,10
			c3.5,7.6,8.8,15,16,21c3.5,2.9,7.2,5.1,11,7.5c4,2.6,3.3,5.7,2,9.5c-2.2,6.5-2,13.5-2,21c0,15.6,8.2,31.4,21,41
			c2,1.5,3.8,3.2,6,4.5c1.4,0.8,3.9,1.3,5,2.5c1.9,2.2,1,7,1,10c0,3.5-0.5,7.5,0,11c0.5,3.3,1.9,6.8,3,10c2.5,7.6,8.1,15.3,15,21
			c6.1,5,13.7,6.8,21,9.5h10c2.4,2.4,1.8,7.2,3,10c1.5,3.3,3.2,7.1,5.5,10c5.1,6.5,13,9.2,20.5,12h130c7.5-2.8,15.4-5.5,20.5-12
			c2.3-3,4.3-7,5.5-10.5c0.9-2.7,0.9-7.2,3-9.5h10c8.9-3.4,17.1-5.6,24-12.5c7.1-7.1,11.5-14.6,14-23.5c1-3.7,1-7.4,1-11.5
			c0-3.5-1-8.7,0-12c0.9-3.1,8.1-6.1,11-8c4-2.7,7.5-6.2,10-10c4.6-6.9,8.7-12.7,10-21c0.9-0.4,1.2-1.1,1-2c0-0.7,0-1.3,0-2
			c0.1-0.8,0.9-1.4,1-2c0.3-1.6,0-3.4,0-5c0-3.3,0-6.7,0-10c0-3.8-0.9-7.6-2-11c-1.2-3.7-2-7,2-9.5c7.9-5,14.2-10.5,20-17.5
			c9.9-11.9,14-26,14-42C246,247.3,240.7,233.8,231,221.5z"/>
		<g>
			<g>
				<path class="st3" d="M-24.9,433.2H90.9c12.1,0,21.9,9.8,21.9,21.9l0,0c0,12.1-9.8,21.9-21.9,21.9H-24.9
					c-12.1,0-21.9-9.8-21.9-21.9l0,0C-46.8,443-37,433.2-24.9,433.2z"/>
				<path class="st3" d="M162.9,409.4c0,9.8-4,18.7-10.4,25.2C146,441,137.1,445,127.3,445H-61.3c-19.7,0-35.6-15.9-35.6-35.6
					c0-1,0-1.9,0.1-2.8c0.7-8.7,4.5-16.5,10.3-22.3c6.4-6.4,15.3-10.4,25.2-10.4h188.5c18.7,0,34.1,14.4,35.5,32.8
					C162.8,407.5,162.9,408.4,162.9,409.4z"/>
				<path class="st3" d="M162.7,406.6c-3.8,0.7-7.6,1-11.6,1H-85.2c-3.9,0-7.8-0.4-11.6-1.1c0.7-8.7,4.5-16.5,10.3-22.3
					c6.4-6.4,15.3-10.4,25.2-10.4h188.5C146,373.8,161.3,388.2,162.7,406.6z"/>
				<path class="st3" d="M162.9,113.9c0,1,0,1.9-0.1,2.8c-0.7,8.7-4.5,16.5-10.3,22.3c-6.4,6.4-15.3,10.4-25.2,10.4H-61.3
					c-18.7,0-34.1-14.4-35.5-32.8c-0.1-0.9-0.1-1.9-0.1-2.8c0-9.8,4-18.7,10.4-25.2c6.4-6.4,15.3-10.4,25.2-10.4h188.5
					C146.9,78.3,162.9,94.3,162.9,113.9z"/>
				<path class="st3" d="M162.7,116.8c-0.7,8.7-4.5,16.5-10.3,22.3c-6.4,6.4-15.3,10.4-25.2,10.4H-61.3c-18.7,0-34.1-14.4-35.5-32.8
					c3.8-0.7,7.6-1,11.6-1h236.3C155.1,115.7,159,116.1,162.7,116.8z"/>
				<path class="st3" d="M195.8,344.1c0,12.3-5,23.5-13.1,31.6c-8.1,8.1-19.2,13.1-31.6,13.1H-85.2c-24.7,0-44.6-20-44.6-44.6
					c0-5.1,0.8-9.9,2.4-14.4c2.2-6.5,5.9-12.4,10.7-17.1c8.1-8.1,19.2-13.1,31.6-13.1h236.3c19.6,0,36.3,12.6,42.2,30.2
					C195,334.2,195.8,339.1,195.8,344.1z"/>
				<path class="st3" d="M193.4,329.7c-5.7,1.4-11.7,2.2-17.8,2.2h-285.2c-6.1,0-12.1-0.8-17.8-2.2c2.2-6.5,5.9-12.4,10.7-17.1
					c8.1-8.1,19.2-13.1,31.6-13.1h236.3C170.8,299.5,187.4,312.1,193.4,329.7z"/>
				<path class="st3" d="M195.8,179.2c0,3.4-0.4,6.6-1.1,9.8c-1.9,8.4-6.1,15.9-12,21.8c-8.1,8.1-19.2,13.1-31.6,13.1H-85.2
					c-21.3,0-39.1-14.9-43.6-34.8c-0.7-3.2-1.1-6.4-1.1-9.8c0-12.3,5-23.5,13.1-31.6c8.1-8.1,19.2-13.1,31.6-13.1h236.3
					C175.8,134.6,195.8,154.6,195.8,179.2z"/>
				<path class="st3" d="M-128.7,189c6.1-1.7,12.5-2.6,19.1-2.6h285.2c6.6,0,13,0.9,19.1,2.6c-1.9,8.4-6.1,15.9-12,21.8
					c-8.1,8.1-19.2,13.1-31.6,13.1H-85.2C-106.4,223.8-124.3,208.9-128.7,189z"/>
				<path class="st3" d="M175.6,313h-285.2c-29.7,0-53.9-24.1-53.9-53.9l0,0c0-29.7,24.1-53.9,53.9-53.9h285.2
					c29.7,0,53.9,24.1,53.9,53.9l0,0C229.5,288.9,205.3,313,175.6,313z"/>
			</g>
		</g>
	</g>
</g>
<circle class="st4" cx="132.8" cy="427.6" r="56.1"/>
<path class="st3" d="M145.2,397.5v29.9h11.2L134,457.3l-22.4-29.9h11.2v-29.9H145.2z"/>
</svg>
